<?xml version="1.0" encoding="UTF-8"?>
<svg id="Layer_2" data-name="Layer 2" xmlns="http://www.w3.org/2000/svg" xmlns:xlink="http://www.w3.org/1999/xlink" viewBox="0 0 114.46 139.48">
  <defs>
    <style>
      .cls-1 {
        fill: url(#linear-gradient-2);
      }

      .cls-2 {
        fill: url(#radial-gradient-7);
      }

      .cls-3 {
        fill: url(#radial-gradient-10);
      }

      .cls-4 {
        fill: url(#radial-gradient-8);
      }

      .cls-5 {
        fill: url(#linear-gradient-6);
      }

      .cls-6 {
        fill: url(#radial-gradient-5);
      }

      .cls-7 {
        fill: url(#radial-gradient-4);
      }

      .cls-8 {
        fill: url(#radial-gradient-6);
      }

      .cls-9 {
        fill: url(#radial-gradient-12);
      }

      .cls-10 {
        fill: url(#linear-gradient-10);
      }

      .cls-11 {
        fill: url(#radial-gradient);
      }

      .cls-12 {
        fill: url(#radial-gradient-13);
      }

      .cls-13 {
        fill: url(#linear-gradient-5);
      }

      .cls-14 {
        fill: url(#radial-gradient-2);
      }

      .cls-15 {
        fill: url(#radial-gradient-3);
      }

      .cls-16 {
        fill: url(#linear-gradient-7);
      }

      .cls-17 {
        fill: url(#linear-gradient-9);
      }

      .cls-18 {
        fill: url(#radial-gradient-14);
      }

      .cls-19 {
        fill: url(#linear-gradient-3);
      }

      .cls-20 {
        fill: url(#linear-gradient);
      }

      .cls-21 {
        fill: url(#linear-gradient-4);
      }

      .cls-22 {
        fill: url(#radial-gradient-11);
      }

      .cls-23 {
        fill: url(#radial-gradient-9);
      }

      .cls-24 {
        fill: url(#linear-gradient-8);
      }
    </style>
    <linearGradient id="linear-gradient" x1="42.66" y1="11.09" x2="46.19" y2="31.08" gradientTransform="translate(16.93 24.92) rotate(18.71)" gradientUnits="userSpaceOnUse">
      <stop offset="0" stop-color="#85085b"/>
      <stop offset="1" stop-color="#cf1111"/>
    </linearGradient>
    <linearGradient id="linear-gradient-2" x1="72.92" y1="47.14" x2="21.77" y2="61.98" gradientTransform="translate(16.93 24.92) rotate(18.71)" gradientUnits="userSpaceOnUse">
      <stop offset="0" stop-color="#ffc800"/>
      <stop offset=".26" stop-color="#fe9104"/>
      <stop offset=".61" stop-color="#fc4b09"/>
      <stop offset=".87" stop-color="#fc1e0c"/>
      <stop offset="1" stop-color="#fc0e0e"/>
    </linearGradient>
    <linearGradient id="linear-gradient-3" x1="-13.79" y1="-18.21" x2="19.91" y2="7.26" gradientTransform="translate(16.93 24.92) rotate(18.71)" gradientUnits="userSpaceOnUse">
      <stop offset=".18" stop-color="#ffc800"/>
      <stop offset="1" stop-color="#fc0e0e"/>
    </linearGradient>
    <linearGradient id="linear-gradient-4" x1="89.12" y1="-4.76" x2="100.43" y2="-4.76" xlink:href="#linear-gradient"/>
    <linearGradient id="linear-gradient-5" x1="23.37" y1="65.66" x2="57.72" y2="65.66" xlink:href="#linear-gradient"/>
    <linearGradient id="linear-gradient-6" x1="57.89" y1="110.34" x2="54.36" y2="65.67" gradientTransform="translate(16.93 24.92) rotate(18.71)" gradientUnits="userSpaceOnUse">
      <stop offset=".37" stop-color="#ffc800"/>
      <stop offset="1" stop-color="#fc0e0e"/>
    </linearGradient>
    <linearGradient id="linear-gradient-7" x1="32.99" y1="117.02" x2="49.45" y2="60.98" xlink:href="#linear-gradient-3"/>
    <linearGradient id="linear-gradient-8" x1="9.63" y1="86.92" x2="42.55" y2="69.29" xlink:href="#linear-gradient-3"/>
    <linearGradient id="linear-gradient-9" x1="42.76" y1=".98" x2="94.29" y2="38.56" xlink:href="#linear-gradient-3"/>
    <linearGradient id="linear-gradient-10" x1="59.16" y1="67.48" x2="72.9" y2="67.48" xlink:href="#linear-gradient"/>
    <radialGradient id="radial-gradient" cx="322.83" cy="-162.9" fx="322.83" fy="-162.9" r="4.2" gradientTransform="translate(434.91 -70.28) rotate(135.63) scale(1 -1)" gradientUnits="userSpaceOnUse">
      <stop offset="0" stop-color="#cf1111"/>
      <stop offset="1" stop-color="#85085b"/>
    </radialGradient>
    <radialGradient id="radial-gradient-2" cx="316.25" cy="-159.65" fx="316.25" fy="-159.65" r="2.98" xlink:href="#radial-gradient"/>
    <radialGradient id="radial-gradient-3" cx="-13.9" cy="2.08" fx="-13.9" fy="2.08" r="4.2" gradientTransform="translate(16.93 24.92) rotate(18.71)" xlink:href="#radial-gradient"/>
    <radialGradient id="radial-gradient-4" cx="-13.9" cy="-20.24" fx="-13.9" fy="-20.24" r="4.2" gradientTransform="translate(16.93 24.92) rotate(18.71)" xlink:href="#radial-gradient"/>
    <radialGradient id="radial-gradient-5" cx="-17.05" cy="-9.44" fx="-17.05" fy="-9.44" r="5.35" gradientTransform="translate(16.93 24.92) rotate(18.71)" xlink:href="#radial-gradient"/>
    <radialGradient id="radial-gradient-6" cx="-9.53" cy="10.1" fx="-9.53" fy="10.1" r="2.89" gradientTransform="translate(16.93 24.92) rotate(18.71)" xlink:href="#radial-gradient"/>
    <radialGradient id="radial-gradient-7" cx="-4.95" cy="15.69" fx="-4.95" fy="15.69" r="2.49" gradientTransform="translate(16.93 24.92) rotate(18.71)" xlink:href="#radial-gradient"/>
    <radialGradient id="radial-gradient-8" cx="1.19" cy="19.74" fx="1.19" fy="19.74" r="2.49" gradientTransform="translate(16.93 24.92) rotate(18.71)" xlink:href="#radial-gradient"/>
    <radialGradient id="radial-gradient-9" cx="9.34" cy="21.44" fx="9.34" fy="21.44" r="2.49" gradientTransform="translate(16.93 24.92) rotate(18.71)" xlink:href="#radial-gradient"/>
    <radialGradient id="radial-gradient-10" cx="-1.68" cy="118.77" fx="-1.68" fy="118.77" r="5.66" gradientTransform="translate(60.99 19.59) rotate(25.94)" xlink:href="#radial-gradient"/>
    <radialGradient id="radial-gradient-11" cx="1.41" cy="109.73" fx="1.41" fy="109.73" r="3.89" gradientTransform="translate(60.99 19.59) rotate(25.94)" xlink:href="#radial-gradient"/>
    <radialGradient id="radial-gradient-12" cx="-2.13" cy="129.7" fx="-2.13" fy="129.7" r="3.89" gradientTransform="translate(60.99 19.59) rotate(25.94)" xlink:href="#radial-gradient"/>
    <radialGradient id="radial-gradient-13" cx="5.56" cy="102.66" fx="5.56" fy="102.66" r="3.35" gradientTransform="translate(60.99 19.59) rotate(25.94)" xlink:href="#radial-gradient"/>
    <radialGradient id="radial-gradient-14" cx="311.77" cy="-154.51" fx="311.77" fy="-154.51" r="2.94" gradientTransform="translate(434.91 -70.28) rotate(135.63) scale(1 -1)" xlink:href="#radial-gradient"/>
  </defs>
  <g id="graphics">
    <g>
      <path class="cls-20" d="m27.8,49.77c.04,1.12,8.71,14.02,22.6,19.87,16.54,6.97,26.08,3.95,26.51-2.82.44-7.02-5.39-9.76-14.94-11.32-6.01-.98-21.1-2.29-34.18-5.73Z"/>
      <path class="cls-1" d="m74.26,86.89s-8.71,6.67-20.52,2.36c-13.38-4.89-14.64-9.41-20.29-7.29-5.5,2.06-7.31,13.24,6.48,18.33,8.39,3.09,22.29,3.62,34.33-13.4Z"/>
      <path class="cls-19" d="m16.78,9.84c-2.4-.17-7.65,2.9-5.34,10.26,2.16,6.87,7.25,12.24,17.36,14.91,11.39,3.01,14.47,1.66,14.47,1.66,0,0-13.93-1.51-17.53-13.8-2.94-10.04-5.2-12.78-8.96-13.04Z"/>
      <path class="cls-21" d="m101.85,54.25s0-7.27,4.4-8.63c3.53-1.09,7.79,2.17,8.2,4.43-4.26-2.03-10.31,1.65-12.61,4.2Z"/>
      <path class="cls-13" d="m24.73,91.42c1.51,1.46,3.07,4.81,6.32,7.29,6.66,5.07,13.26,5.42,20.28,4.55-8.28,3.06-18.23,5.21-28.7-2.62-8.33-6.24-2.36-13.52,2.09-9.22Z"/>
      <path class="cls-5" d="m53.61,104.94s-6.68,1.74-9.95,4.08c-5.94,4.26-7.38,10-4.46,13.26,2.85,3.18,7.69.53,7.62-3.49-.11-6.75,1.6-10.83,6.79-13.85Z"/>
      <path class="cls-16" d="m43.71,106.94s-9.4.59-19.31,11.61c-5.02,5.58-8.68,14.37-4.91,16.82,4.3,2.8,6.84-1.88,9.13-8.64,3.95-11.65,9.24-16.67,15.09-19.79Z"/>
      <path class="cls-24" d="m18.15,103.06c-2.27-2.77-7.18,1.44-3.29,5.16,6.48,6.19,18,.74,19.77-.28,1.81-1.04-3.9-.11-7.15-.69-4.71-.85-6.73-1-9.33-4.19Z"/>
      <path class="cls-17" d="m80.68,65.88c4.71,17.23-11.39,30.7-22.82,37.67,0,0,0,0,0,0,4.93-1.02,9.19-3.52,14.08-4.92,26.4-9.53,31.06-22.5,28.55-36.78-1.2-6.79-.62-11.01.85-13.56.47-1.59,1.81-3,3.36-4.17-17.49-1.27-14.41,14.16-14.59,20.42-5.56-28.16-38.1-22.02-58.73-26.25-20.63-4.23-22.39-14.1-22.39-14.1-.6,6.24,4.9,21.24,21.53,24.51,22.98,4.51,46.29,2.99,50.17,17.18Z"/>
      <path class="cls-10" d="m53.77,107.53c-10.11,6.34.29,18.19,7.57,9.5,2.93-3.5,2.9-10.22,6.39-14.83-7.68,2.56-10.8,3.35-13.96,5.33Z"/>
      <path class="cls-11" d="m88.37,42.73c1.11,1.13,2.93,1.15,4.06.04,1.13-1.11,1.15-2.93.04-4.06-1.11-1.13-2.93-1.15-4.06-.04-1.13,1.11-1.15,2.93-.04,4.06Z"/>
      <path class="cls-14" d="m95.88,39.39c.79.81,2.08.82,2.88.03.81-.79.82-2.08.03-2.89-.79-.81-2.08-.82-2.89-.03-.81.79-.82,2.08-.03,2.89Z"/>
      <path class="cls-15" d="m6.38,24.94c-.51,1.5-2.14,2.31-3.64,1.8s-2.31-2.14-1.8-3.64,2.14-2.31,3.64-1.8,2.31,2.14,1.8,3.64Z"/>
      <path class="cls-7" d="m13.54,3.8c-.51,1.5-2.14,2.31-3.64,1.8s-2.31-2.14-1.8-3.64S10.24-.36,11.74.15s2.31,2.14,1.8,3.64Z"/>
      <path class="cls-6" d="m7.98,13.7c-.65,1.91-2.73,2.94-4.64,2.29S.4,13.27,1.05,11.36s2.73-2.94,4.64-2.29,2.94,2.73,2.29,4.64Z"/>
      <path class="cls-8" d="m6.91,33.15c-.35,1.03-1.47,1.59-2.5,1.24s-1.59-1.47-1.24-2.5,1.47-1.59,2.5-1.24,1.59,1.47,1.24,2.5Z"/>
      <path class="cls-2" d="m9.15,39.68c-.3.89-1.27,1.37-2.16,1.07s-1.37-1.27-1.06-2.16,1.27-1.37,2.16-1.07,1.37,1.27,1.07,2.16Z"/>
      <path class="cls-4" d="m13.67,45.48c-.3.89-1.27,1.37-2.16,1.07s-1.37-1.27-1.07-2.16,1.27-1.37,2.16-1.07,1.37,1.27,1.07,2.16Z"/>
      <path class="cls-23" d="m20.83,49.71c-.3.89-1.27,1.37-2.16,1.07s-1.37-1.27-1.06-2.16,1.27-1.37,2.16-1.07,1.37,1.27,1.07,2.16Z"/>
      <path class="cls-3" d="m11.48,129.57c-.94,1.92-3.25,2.72-5.18,1.79-1.92-.93-2.73-3.25-1.79-5.18.94-1.92,3.25-2.72,5.18-1.79,1.92.94,2.72,3.25,1.79,5.18Z"/>
      <path class="cls-22" d="m16.98,121.58c-.64,1.32-2.24,1.87-3.56,1.23-1.32-.64-1.87-2.24-1.23-3.56.64-1.32,2.23-1.87,3.56-1.23,1.32.64,1.87,2.24,1.23,3.56Z"/>
      <path class="cls-9" d="m5.05,137.98c-.64,1.32-2.24,1.87-3.56,1.23-1.32-.64-1.87-2.24-1.23-3.56.64-1.32,2.23-1.87,3.56-1.23,1.32.64,1.87,2.24,1.23,3.56Z"/>
      <path class="cls-12" d="m23.43,116.66c-.56,1.14-1.93,1.61-3.06,1.06-1.14-.55-1.61-1.92-1.06-3.06.55-1.14,1.93-1.61,3.06-1.06,1.14.55,1.61,1.93,1.06,3.06Z"/>
      <path class="cls-18" d="m102.7,39.89c.78.79,2.05.81,2.85.03.8-.78.81-2.05.03-2.85-.78-.8-2.05-.81-2.85-.03-.79.78-.81,2.05-.03,2.85Z"/>
    </g>
  </g>
</svg>